# xmcd
#
# Track frame offsets:
# 150
# 15374
# 33270
# 53514
# 69574
# 86066
# 99076
# 114570
# 125799
# 140267
# 156085
# 169311
# 185129
# 200083
# 216089
# 227372
# 246132
# 262165
# 275931
# 292207
# 308510
#
# Disc length: 4395 seconds
#
#
# Revision: 5
# Processed by: cddbd v1.5.2PL0 Copyright (c) Steve Scherf et al.
# Submitted via: FreeRIP 2.945 
#
DISCID=36112915
DTITLE=Duduca and Dalvan - Grandes Sucessos - Grandes Sucessos
DYEAR=1998
DGENRE=Country
TTITLE0=Eu Disse Não-Duduca and Dalvan
TTITLE1=Pirâmide Do Amor-Duduca and Dalvan
TTITLE2=Amigo-Duduca and Dalvan
TTITLE3=Mulher Maravilha-Duduca and Dalvan
TTITLE4=Meus Pedaços-Duduca and Dalvan
TTITLE5=Dama De Vermelho-Duduca and Dalvan
TTITLE6=Para Que Chorar-Duduca and Dalvan
TTITLE7=Deusa E Dama-Duduca and Dalvan
TTITLE8=Eu-Duduca and Dalvan
TTITLE9=Anistia De Amor-Duduca and Dalvan
TTITLE10=Nossa Última Vez-Duduca and Dalvan
TTITLE11=Super Homem-Duduca and Dalvan
TTITLE12=Rainha Do Mundo-Duduca and Dalvan
TTITLE13=Meu Martírio-Duduca and Dalvan
TTITLE14=Quem Sou Eu-Duduca and Dalvan
TTITLE15=Igrejinha Da Serra-Duduca and Dalvan
TTITLE16=Rastros Na Areia-Duduca and Dalvan
TTITLE17=Espinheira-Duduca and Dalvan
TTITLE18=Pequitita-Duduca and Dalvan
TTITLE19=Massa Falida-Duduca and Dalvan
TTITLE20=Berrante De Ouro-Duduca and Dalvan
EXTD=Duduca and Dalvan - Grandes Sucessos
EXTT0=
EXTT1=
EXTT2=
EXTT3=
EXTT4=
EXTT5=
EXTT6=
EXTT7=
EXTT8=
EXTT9=
EXTT10=
EXTT11=
EXTT12=
EXTT13=
EXTT14=
EXTT15=
EXTT16=
EXTT17=
EXTT18=
EXTT19=
EXTT20=
PLAYORDER=
